<?xml version="1.0" encoding="UTF-8"?>
<svg width="21px" height="24px" viewBox="0 0 21 24" version="1.1" xmlns="http://www.w3.org/2000/svg" xmlns:xlink="http://www.w3.org/1999/xlink">
    <!-- Generator: Sketch 52.5 (67469) - http://www.bohemiancoding.com/sketch -->
    <title>Assessment and Protection (Tasks)</title>
    <desc>Created with Sketch.</desc>
    <g id="UI" stroke="none" stroke-width="1" fill="none" fill-rule="evenodd">
        <g id="iPad-0-login-Copy-3" transform="translate(-320.000000, -48.000000)" fill="#37484A">
            <g id="Assessment-and-Protection-(Tasks)" transform="translate(320.080000, 48.000000)">
                <path d="M14.5833333,1.5 L12.5923333,1.5 C12.2146667,0.627 11.1953333,0 10,0 C8.80466667,0 7.78533333,0.627 7.40583333,1.5 L5.41666667,1.5 C4.91066667,1.5 4.5,1.836 4.5,2.25 L4.5,5.25 C4.5,5.664 4.91066667,6 5.41666667,6 L14.5833333,6 C15.0893333,6 15.5,5.664 15.5,5.25 L15.5,2.25 C15.5,1.836 15.0893333,1.5 14.5833333,1.5 Z" id="Path"></path>
                <path d="M18.3333333,3 L16.6666667,3 L16.6666667,5.25 C16.6666667,6.4905 15.545,7.5 14.1666667,7.5 L5.83333333,7.5 C4.455,7.5 3.33333333,6.4905 3.33333333,5.25 L3.33333333,3 L1.66666667,3 C0.748333333,3 0,3.6735 0,4.5 L0,22.5 C0,23.3415 0.731666667,24 1.66666667,24 L18.3333333,24 C19.2683333,24 20,23.3415 20,22.5 L20,4.5 C20,3.6585 19.2683333,3 18.3333333,3 Z M9.75666667,17.281 L6.42333333,20.281 C6.26,20.4265 6.04666667,20.5 5.83333333,20.5 C5.62,20.5 5.40666667,20.4265 5.24333333,20.281 L3.57666667,18.781 C3.25166667,18.4885 3.25166667,18.013 3.57666667,17.7205 C3.90166667,17.428 4.43,17.428 4.755,17.7205 L5.83333333,18.6895 L8.57666667,16.2205 C8.90166667,15.928 9.43,15.928 9.755,16.2205 C10.08,16.513 10.0816667,16.987 9.75666667,17.281 Z M9.75666667,11.281 L6.42333333,14.281 C6.26,14.4265 6.04666667,14.5 5.83333333,14.5 C5.62,14.5 5.40666667,14.4265 5.24333333,14.281 L3.57666667,12.781 C3.25166667,12.4885 3.25166667,12.013 3.57666667,11.7205 C3.90166667,11.428 4.43,11.428 4.755,11.7205 L5.83333333,12.6895 L8.57666667,10.2205 C8.90166667,9.928 9.43,9.928 9.755,10.2205 C10.08,10.513 10.0816667,10.987 9.75666667,11.281 Z M15.8333333,19 L12.5,19 C12.04,19 11.6666667,18.664 11.6666667,18.25 C11.6666667,17.836 12.04,17.5 12.5,17.5 L15.8333333,17.5 C16.2933333,17.5 16.6666667,17.836 16.6666667,18.25 C16.6666667,18.664 16.2933333,19 15.8333333,19 Z M15.8333333,13 L12.5,13 C12.04,13 11.6666667,12.664 11.6666667,12.25 C11.6666667,11.836 12.04,11.5 12.5,11.5 L15.8333333,11.5 C16.2933333,11.5 16.6666667,11.836 16.6666667,12.25 C16.6666667,12.664 16.2933333,13 15.8333333,13 Z" id="Shape" fill-rule="nonzero"></path>
            </g>
        </g>
    </g>
</svg>