<?xml version="1.0" encoding="UTF-8"?>
<svg width="20px" height="26px" viewBox="0 0 20 26" version="1.1" xmlns="http://www.w3.org/2000/svg" xmlns:xlink="http://www.w3.org/1999/xlink">
    <!-- Generator: Sketch 52.5 (67469) - http://www.bohemiancoding.com/sketch -->
    <title>Basic Nursing Care (Tasks) and Nurse Icon (Dashboard)</title>
    <desc>Created with Sketch.</desc>
    <g id="UI" stroke="none" stroke-width="1" fill="none" fill-rule="evenodd">
        <g id="iPad-0-login-Copy-3" transform="translate(-107.000000, -147.000000)" fill="white">
            <g id="Basic-Nursing-Care-(Tasks)-and-Nurse-Icon-(Dashboard)" transform="translate(107.000000, 147.000000)">
                <g id="Group-2" transform="translate(3.500000, 0.000000)" fill-rule="nonzero">
                    <path d="M9.02075908,15.0087096 C10.9467869,14.2592368 13.1889447,12.6078858 12.659425,9.00983047 C12.3989083,7.23963512 11.9483181,5.5245936 11.1328232,4.21052632 L10.519925,5.73131586 L9.6367057,5.4220694 C8.68386692,5.08855191 7.59912198,4.9121266 6.49987642,4.9121266 C5.40063085,4.9121266 4.31588591,5.08846822 3.36304713,5.4220694 L2.47982779,5.73131586 L1.86701199,4.21052632 C1.05151711,5.5245936 0.601009339,7.23963512 0.34049259,9.00983047 C-0.189027064,12.6078858 2.05313069,14.2592368 3.97915853,15.0087096 C3.97915853,15.0087096 5.16712809,15.6039178 6.42663534,15.6035567 C7.68006603,15.6031974 9.02075908,15.0087096 9.02075908,15.0087096 Z M3.22150135,11.8292877 C3.12131527,11.6298468 3.02656693,11.3261241 2.94236449,10.954861 C2.71538041,10.9386245 2.48518313,10.8758546 2.34108326,10.7114811 C1.9725534,10.29109 1.60212857,8.82378043 1.83858748,8.22319787 C1.95541631,7.92650539 2.29585123,8.05505818 2.61049812,8.26094351 C2.61049812,8.26094351 3.62974312,7.30558538 4.03493647,6.06466597 C6.07260258,7.98040383 8.57585381,8.78570002 11.2241936,8.97643687 C11.1677565,9.63434929 10.9130071,10.4216514 10.6589167,10.7114811 C10.5148169,10.8758546 10.2846196,10.9385408 10.0576355,10.954861 C9.97335068,11.3261241 9.87868473,11.6298468 9.77849865,11.8292877 C9.18364384,13.012961 7.93698203,14.3141395 6.50004119,14.3141395 C5.06310036,14.3141395 3.81627377,13.012961 3.22150135,11.8292877 Z" id="Shape"></path>
                    <path d="M6.90620897,3.61652988 C8.11509265,3.61652988 9.29845444,3.82118929 10.3515808,4.21052632 L11.375,1.52891584 C10.1597153,0.541093079 8.58367766,0 6.90620897,0 C5.22874028,0 3.6527026,0.541093079 2.4375,1.52891584 L3.46091921,4.21052632 C4.51396349,3.82118929 5.69732529,3.61652988 6.90620897,3.61652988 Z M5.75731402,1.2800676 L6.41382542,1.2800676 L6.41382542,0.575863173 L7.39859252,0.575863173 L7.39859252,1.2800676 L8.05510392,1.2800676 L8.05510392,2.33637425 L7.39859252,2.33637425 L7.39859252,3.04057868 L6.41382542,3.04057868 L6.41382542,2.33637425 L5.75731402,2.33637425 L5.75731402,1.2800676 Z" id="Shape"></path>
                </g>
                <path d="M0.964248689,25.3260641 C0.367137665,25.2346096 -0.0499746726,24.7381043 0.00483261936,24.1838987 C0.187619746,22.3370475 0.518001948,19.2366949 1.12559366,18.4948087 C1.52837918,18.003075 5.95123149,16.1416441 6.34190172,16 C6.84439805,17.5594985 8.58553918,19.2685935 9.99927885,20.4499916 C11.4134993,19.268947 13.1556981,17.5598519 13.6581944,16.0001767 C14.1192488,16.1673574 18.4700824,18.0012194 18.8744063,18.4947204 C19.4820942,19.2366066 19.8123803,22.3369591 19.9951674,24.1838987 C20.0499747,24.7381043 19.6328623,25.2346096 19.0357513,25.3259757 C16.0536577,25.782188 13.0190645,26 10.0000481,26 C6.98112782,26 3.94634229,25.782188 0.964248689,25.3260641 Z" id="Path"></path>
            </g>
        </g>
    </g>
</svg>