<?xml version="1.0" ?><svg id="Layer_1" style="enable-background:new 0 0 512 512;" version="1.1" viewBox="0 0 512 512" xml:space="preserve" xmlns="http://www.w3.org/2000/svg" xmlns:xlink="http://www.w3.org/1999/xlink"><g id="XMLID_1493_"><path d="M390.3,415.3l-100.4,13.2c-21.3,2.8-36.3,22.4-33.5,43.7c2.8,21.3,22.4,36.3,43.7,33.5l100.4-13.2   c21.3-2.8,36.3-22.4,33.5-43.7C431.1,427.5,411.6,412.5,390.3,415.3z M399.2,483.3l-32.2,4.2l-7.8-58.8l32.2-4.2   c16.2-2.1,31.2,9.3,33.3,25.5C426.9,466.2,415.4,481.1,399.2,483.3z" id="XMLID_1503_"/><path d="M258.4,439.1c1.7-2.2,3.5-4.2,5.5-6c-4.8-9.4-4.4-21.1,2-30.4l18.5-26.7l48.8,33.8l-4.5,6.4l12.4-1.6   l38.9-56.1c12.2-17.7,7.8-41.9-9.8-54.1c-17.7-12.2-41.9-7.8-54.1,9.8l-57.7,83.2c-9.2,13.2-9,30.1-0.9,42.9   C257.8,439.9,258.1,439.5,258.4,439.1z" id="XMLID_1521_"/><path d="M249.6,445.3c-10.3-16.4-9.9-37.3,1.1-53.2l57.7-83.2c6.6-9.6,16.5-16.3,27.5-19.2V114.8h2.9   c11.2,0,20.3-9.1,20.3-20.3V26.3c0-11.2-9.1-20.3-20.3-20.3H65.4c-11.2,0-20.3,9.1-20.3,20.3v68.2c0,11.2,9,20.3,20.2,20.3V415   c0,33.1,26.8,59.8,59.8,59.8h122.2c-0.1-0.5-0.2-0.9-0.2-1.4c-1.2-9,0.2-17.9,3.8-26L249.6,445.3z M323.5,34.6c0-4.4,3.6-8,8-8   c4.4,0,8,3.6,8,8v51.6c0,4.4-3.6,8-8,8c-4.4,0-8-3.6-8-8V34.6z M80.8,86.2c0,4.4-3.6,8-8,8c-4.4,0-8-3.6-8-8V34.6c0-4.4,3.6-8,8-8   c4.4,0,8,3.6,8,8V86.2z M294.8,34.6c0-4.4,3.6-8,8-8c4.4,0,8,3.6,8,8v51.6c0,4.4-3.6,8-8,8c-4.4,0-8-3.6-8-8V34.6z M266,34.6   c0-4.4,3.6-8,8-8c4.4,0,8,3.6,8,8v51.6c0,4.4-3.6,8-8,8c-4.4,0-8-3.6-8-8V34.6z M237.3,34.6c0-4.4,3.6-8,8-8c4.4,0,8,3.6,8,8v51.6   c0,4.4-3.6,8-8,8c-4.4,0-8-3.6-8-8V34.6z M208.5,34.6c0-4.4,3.6-8,8-8c4.4,0,8,3.6,8,8v51.6c0,4.4-3.6,8-8,8c-4.4,0-8-3.6-8-8V34.6   z M179.7,34.6c0-4.4,3.6-8,8-8c4.4,0,8,3.6,8,8v51.6c0,4.4-3.6,8-8,8c-4.4,0-8-3.6-8-8V34.6z M109.6,86.2c0,4.4-3.6,8-8,8   c-4.4,0-8-3.6-8-8V34.6c0-4.4,3.6-8,8-8c4.4,0,8,3.6,8,8V86.2z M138.3,86.2c0,4.4-3.6,8-8,8c-4.4,0-8-3.6-8-8V34.6c0-4.4,3.6-8,8-8   c4.4,0,8,3.6,8,8V86.2z M167.1,86.2c0,4.4-3.6,8-8,8c-4.4,0-8-3.6-8-8V34.6c0-4.4,3.6-8,8-8c4.4,0,8,3.6,8,8V86.2z M167.5,264.3   v-41.2h48.8v-54.2h44.9v54.2h48.6v41.2h-48.6v55.8h-44.9v-55.8H167.5z" id="XMLID_1530_"/><path d="M450.1,359.7c-17.7-12.2-41.9-7.8-54.1,9.8l-27.2,39.3l20.3-2.7c2.1-0.3,4.2-0.4,6.3-0.4   c21.5,0,40.2,14.4,46.2,34.6l18.4-26.5C472.2,396.1,467.8,371.9,450.1,359.7z" id="XMLID_1557_"/></g></svg>