<?xml version="1.0" encoding="UTF-8"?>
<svg width="24px" height="24px" viewBox="0 0 24 24" version="1.1" xmlns="http://www.w3.org/2000/svg" xmlns:xlink="http://www.w3.org/1999/xlink">
    <!-- Generator: Sketch 52.5 (67469) - http://www.bohemiancoding.com/sketch -->
    <title>Physio Treatment (Tasks)</title>
    <desc>Created with Sketch.</desc>
    <g id="UI" stroke="none" stroke-width="1" fill="none" fill-rule="evenodd">
        <g id="iPad-0-login-Copy-3" transform="translate(-205.000000, -102.000000)" fill="#3B4652" fill-rule="nonzero">
            <g id="Physio-Treatment-(Tasks)" transform="translate(205.000000, 102.000000)">
                <path d="M4.19380714,18.4685625 C4.41546614,18.4685625 4.6376875,18.5511562 4.81623312,18.7103437 L5.16901304,19.0251562 C5.45496722,19.2804375 5.78440967,19.4060625 6.1675564,19.4060625 L23.0627526,19.4060625 C23.5803943,19.4060625 24,19.82625 24,20.3435625 L24,23.1560625 L22.8753031,23.1560625 L22.8753031,22.4060625 C22.8753031,21.993 22.5378941,21.65625 22.1255052,21.65625 L18.0016168,21.65625 C17.5894154,21.65625 17.2518188,21.99375 17.2518188,22.4060625 L17.2518188,24 L16.127122,24 L16.127122,22.4060625 C16.127122,21.993 15.7897129,21.65625 15.3773241,21.65625 L8.16061296,21.65625 C7.74822411,21.65625 7.41081505,21.99375 7.41081505,22.4060625 L7.41081505,23.1560625 L6.28611819,23.1560625 L6.28611819,22.4060625 C6.28611819,21.993 5.94852169,21.65625 5.53632029,21.65625 L1.87449477,21.65625 C1.46248082,21.65625 1.12469686,21.9939375 1.12469686,22.4060625 L1.12469686,24 L0,24 L0.000374898953,20.342625 C0.000374898953,20.2545937 0.0132151881,20.164875 0.039739289,20.0761875 L0.306479894,19.1870625 C0.428228329,18.781125 0.682128645,18.4685625 1.12441568,18.4685625 L4.19380714,18.4685625 Z M11.2570909,0 C10.0148632,0 9.00769714,1.00734375 9.00769714,2.25 C9.00769714,3.4925625 10.0148632,4.5 11.2570909,4.5 C12.499506,4.5 13.5064846,3.4925625 13.5064846,2.25 C13.5064846,1.00734375 12.4994123,0 11.2570909,0 Z M20.3009658,7.59740625 C20.8164518,7.57284375 21.2541463,7.97165625 21.2785148,8.48728125 C21.3026958,9.00309375 20.9043656,9.44053125 20.3888796,9.4651875 L16.4524406,9.65278125 C16.2538378,9.66215625 16.0504552,9.60703125 15.8849373,9.49509375 L13.2097521,7.68890625 C13.0417036,8.32115625 12.8919315,8.93803125 12.7551871,9.5585625 L15.8766895,10.8560625 C16.3539359,11.05425 16.5801874,11.6018437 16.3819595,12.0790312 C16.1839192,12.5565937 15.6363793,12.7827187 15.1591329,12.5844375 L12.3823501,11.4304687 C12.2575087,12.1260937 12.1595067,12.5856557 12.0490052,13.3424057 C10.8868184,13.3412807 9.72566266,13.3392182 8.56563157,13.3392182 C7.86850697,13.3392182 7.16163499,13.4524682 6.53152358,13.7558432 C6.8445642,11.3078432 7.30237553,9.1584375 7.93632966,6.772875 C8.11403176,6.1036875 8.74798589,5.34234375 9.46413662,5.25721875 C9.65927152,5.23396875 9.87493215,5.28253125 10.0426057,5.38171875 C10.5415962,5.67684375 10.8599791,5.81671875 11.1123799,5.8138125 C11.357845,5.81109375 11.6796957,5.682375 12.1479445,5.40271875 C12.46136,5.21559375 12.8616584,5.1939375 13.1831342,5.41096875 L16.6767239,7.76990625 L20.3009658,7.59740625 Z" id="Shape"></path>
                <path d="M17.3175394,13.3109961 L14.9954917,15.5517621 L15.0915758,15.9334263 L23.1021763,16.2549244 C23.6177494,16.2755928 24.0194278,16.6796768 23.9992736,17.16153 C23.9789318,17.643208 23.5448193,17.9998248 23.0288712,17.9996497 L13.8770729,17.9985112 L6.09641805,18 C5.48907289,18.0000876 5.03452486,17.4483473 5.19107161,16.9037885 L5.52797522,15.7307712 C5.70889453,15.1011743 6.12210296,14.6724808 6.64826879,14.3869772 C7.20152564,14.0865852 7.86783362,13.9740477 8.54417184,13.9744856 L13.4481161,13.9779888 L14.6951469,12.9115537 L14.8676296,12.9783755 C15.7233872,13.3105582 16.7155374,12.9275804 17.0709079,12.1279949 C17.1769285,11.889433 17.2146122,11.6393983 17.1930519,11.3975084 L21.6651333,11.0039337 C22.1788317,10.9585684 22.6345983,11.3108063 22.6830622,11.7907328 C22.7304949,12.2590989 22.3722185,12.675619 21.8774557,12.7377117 L17.3175394,13.3109961 Z M2.24977371,12.923727 C1.00733618,12.923727 0,13.8646631 0,15.0255946 C0,16.186351 1.00733618,17.1274622 2.24977371,17.1274622 C3.49239872,17.1274622 4.49954742,16.186351 4.49954742,15.0255946 C4.49954742,13.8646631 3.49239872,12.923727 2.24977371,12.923727 Z" id="Shape"></path>
            </g>
        </g>
    </g>
</svg>