<?xml version="1.0" encoding="UTF-8"?>
<svg width="22px" height="24px" viewBox="0 0 22 24" version="1.1" xmlns="http://www.w3.org/2000/svg" xmlns:xlink="http://www.w3.org/1999/xlink">
    <!-- Generator: Sketch 52.5 (67469) - http://www.bohemiancoding.com/sketch -->
    <title>Psychol Care (Tasks)</title>
    <desc>Created with Sketch.</desc>
    <g id="UI" stroke="none" stroke-width="1" fill="none" fill-rule="evenodd">
        <g id="iPad-0-login-Copy-3" transform="translate(-236.000000, -50.000000)" fill="white" fill-rule="nonzero">
            <g id="Psychol-Care-(Tasks)" transform="translate(236.000000, 50.000000)">
                <path d="M16.2951708,22.0906541 L16.2951708,18.0593614 C16.2947734,17.9119198 16.3724676,17.7757272 16.4986461,17.7020064 C17.207233,17.2924242 17.8583938,16.7892347 18.4350396,16.2052938 C21.3262171,13.2837814 22.0075812,8.80328534 20.117685,5.13894069 C18.2277888,1.47439512 14.2039851,-0.526310562 10.1789891,0.197438705 C6.15419179,0.920987059 3.05953899,4.20146142 2.53535159,8.30009583 C2.53058264,8.34027064 2.51945508,8.37964196 2.50276375,8.41640192 L0.312708458,13.3367524 C0.200418018,13.5890329 0.313902413,13.8845761 0.566182948,13.9968665 C0.630181294,14.0253523 0.699451175,14.0400722 0.769502775,14.0400722 L2.05189903,14.0400722 C2.27663594,14.0400722 2.45884966,14.2242737 2.45884966,14.4514623 L2.45884966,17.9767532 C2.45884966,18.529038 2.90656491,18.9767532 3.45884966,18.9767532 L6.9353065,18.9767532 C7.16004341,18.9767532 7.34225713,19.1609547 7.34225713,19.3881433 L7.34225713,22.0906541 C7.34225713,22.6429388 7.78997238,23.0906541 8.34225713,23.0906541 L15.2951708,23.0906541 C15.8474556,23.0906541 16.2951708,22.6429388 16.2951708,22.0906541 Z M4.49360277,6.63505072 C4.49558986,5.09414576 5.69716717,3.8276348 7.22025145,3.76154724 C7.49863904,3.33689944 7.90737801,3.01670621 8.38367714,2.85038249 C8.6906785,2.74673147 9.01675562,2.71418984 9.33806379,2.75496729 C9.78614664,1.94444043 10.5942854,1.40308481 11.5071424,1.30184428 C12.4201981,1.20060376 13.3251069,1.55193253 13.9365264,2.24474717 C14.160071,2.18830157 14.3893781,2.1593757 14.6198775,2.1583713 C16.1316355,2.15756785 17.3797102,3.35276851 17.4607823,4.87880876 C18.4111948,5.39646121 18.9107426,6.48499778 18.6879928,7.55284431 C18.4292771,8.71630689 17.397395,9.53587307 16.2178741,9.51478131 L14.6673683,9.51478131 C14.6552473,9.51297345 14.6431261,9.51056296 14.6312038,9.50734898 C13.5242107,10.6143659 11.7420133,10.6143659 10.6350202,9.50734898 C10.6227004,9.51056296 10.6103806,9.51297345 10.5978621,9.51478131 L7.34225713,9.51478131 C5.76969498,9.51297345 4.49539111,8.22476804 4.49360277,6.63505072 Z" id="Shape"></path>
                <path d="M10.0234532,8.6544 C9.83946046,8.27139999 9.74350718,7.85139999 9.74251799,7.4256 C9.74251799,7.19939999 9.92393884,7.016 10.1476978,7.016 C10.3714568,7.016 10.5528777,7.19939999 10.5528777,7.4256 C10.5503058,7.78439997 10.6442806,8.13699999 10.8247122,8.44600003 C11.1845863,9.0808 11.8526979,9.4728 12.5764029,9.4736 C13.3001079,9.4744 13.9692086,9.084 14.3304676,8.44999997 C14.5122842,8.14019999 14.6070504,7.78599997 14.6046763,7.4256 C14.6046763,7.19939999 14.7860971,7.016 15.0098561,7.016 C15.2336151,7.016 15.415036,7.19939999 15.415036,7.4256 C15.4140468,7.85139999 15.3178957,8.27139999 15.1339029,8.6544 L16.1468525,8.6544 C16.9336691,8.67459999 17.6267086,8.13479997 17.8081295,7.36060001 C17.9119964,6.87320003 17.7899281,6.36440003 17.4765468,5.97939999 C17.4183813,5.91020001 17.3546763,5.84600003 17.286223,5.7872 C17.156241,6.26279997 16.9063669,6.69619999 16.5609353,7.0448 C16.4018705,7.2 16.1492266,7.19779999 15.9929316,7.03980001 C15.8366367,6.88179999 15.8344604,6.62620001 15.9879856,6.4656 C16.2730755,6.17880003 16.4663669,5.812 16.5431295,5.4128 C16.438669,5.39059999 16.3322302,5.37880003 16.2253957,5.3776 C16.0016367,5.3776 15.8202158,5.19420001 15.8202158,4.968 C15.8202158,4.74179999 16.0016367,4.5584 16.2253957,4.5584 C16.3278777,4.55900001 16.4301619,4.56600003 16.5318525,4.57980001 C16.3306475,3.63939999 15.5074281,2.96860001 14.5556115,2.9696 C14.4893345,2.9696 14.4252338,2.98279997 14.3599461,2.9888 C14.5211871,3.35399997 14.6044784,3.74919997 14.6046763,4.1488 C14.6046763,4.37500001 14.4232554,4.5584 14.1994964,4.5584 C13.9757374,4.5584 13.7943165,4.37500001 13.7943165,4.1488 C13.7921403,3.83139999 13.7163669,3.51900001 13.5727338,3.23660001 C13.4083273,3.32620001 13.2569784,3.43820001 13.1230396,3.5696 C13.0213489,3.67619999 12.8705935,3.71879997 12.7289389,3.68140001 C12.5872842,3.644 12.4766906,3.532 12.4394964,3.3888 C12.4025,3.2456 12.4446403,3.09340001 12.5500899,2.99059999 C12.7040108,2.83580001 12.8751439,2.69939999 13.0597302,2.58419999 C12.6242806,2.20979999 12.0513309,2.0408 11.4849101,2.12 C10.918687,2.1992 10.4126079,2.51879997 10.0938849,2.99879997 C10.5752338,3.2536 10.942428,3.68460001 11.1200899,4.20380001 C11.1917086,4.41799997 11.0779496,4.65059999 10.8658633,4.72300001 C10.6539748,4.79539999 10.4238849,4.68019999 10.3522662,4.46599997 C10.2482014,4.17319997 10.0454137,3.92659999 9.77991006,3.7696 C9.75577339,3.89459999 9.74330935,4.0216 9.74251799,4.1488 C9.74251799,4.37500001 9.56109713,4.5584 9.33733813,4.5584 C9.11357912,4.5584 8.93215827,4.37500001 8.93215827,4.1488 C8.93255398,3.94860001 8.95332735,3.7488 8.99467626,3.55299999 C8.86330935,3.55379999 8.73273381,3.57479997 8.60769784,3.6152 C7.89230216,3.87079997 7.48455037,4.63239997 7.66399278,5.3776 C7.73580934,5.592 7.62205039,5.82460001 7.40996405,5.89699999 C7.19787772,5.9696 6.96798561,5.85459999 6.89616905,5.64019999 C6.78913669,5.31219999 6.76757196,4.96199997 6.83345324,4.6232 C5.83890287,4.86819999 5.18226616,5.82579999 5.30413667,6.85319997 C5.42600717,7.88060001 6.28780578,8.65400003 7.31143885,8.6544 L10.0234532,8.6544 Z M13.3891367,4.968 C14.0604137,4.968 14.6046763,5.51820001 14.6046763,6.1968 C14.6046763,6.42300001 14.4232554,6.6064 14.1994964,6.6064 C13.9757374,6.6064 13.7943165,6.42300001 13.7943165,6.1968 C13.7943165,5.97059999 13.6128957,5.7872 13.3891367,5.7872 C13.1653777,5.7872 12.9839568,5.60380001 12.9839568,5.3776 C12.9839568,5.15139999 13.1653777,4.968 13.3891367,4.968 Z M11.7684173,7.016 C11.9921763,7.016 12.1735971,7.19939999 12.1735971,7.4256 C12.1726079,7.49799997 12.1921942,7.56899999 12.229982,7.6304 C12.3019964,7.75660001 12.4347482,7.83459999 12.578777,7.8352 C12.7279497,7.8328 12.8642626,7.74919997 12.9352878,7.61660001 C13.0472662,7.42060001 13.2951619,7.35340001 13.4890467,7.4664 C13.6829316,7.57959997 13.7494065,7.83020001 13.6376259,8.02620001 C13.4251439,8.41100001 13.0245144,8.65080003 12.5886691,8.65400003 C12.1528238,8.65740001 11.7486331,8.42360003 11.5306115,8.04220001 C11.420018,7.856 11.3620504,7.64280003 11.3632374,7.4256 C11.3632374,7.19939999 11.5446583,7.016 11.7684173,7.016 Z M9.33733813,4.968 C10.0086151,4.968 10.5528777,5.51820001 10.5528777,6.1968 C10.5528777,6.42300001 10.3714568,6.6064 10.1476978,6.6064 C9.92393884,6.6064 9.74251799,6.42300001 9.74251799,6.1968 C9.74251799,5.97059999 9.56109713,5.7872 9.33733813,5.7872 C9.11357912,5.7872 8.93215827,5.60380001 8.93215827,5.3776 C8.93215827,5.15139999 9.11357912,4.968 9.33733813,4.968 Z M6.09589928,6.6064 C6.09589928,6.38019999 6.27732013,6.1968 6.50107914,6.1968 C6.72483814,6.1968 6.90625899,6.38019999 6.90625899,6.6064 C6.90625899,6.83260001 7.08767984,7.016 7.31143885,7.016 C7.53519785,7.016 7.71661871,7.19939999 7.71661871,7.4256 C7.71661871,7.65180001 7.53519785,7.8352 7.31143885,7.8352 C6.64016188,7.8352 6.09589928,7.28519997 6.09589928,6.6064 Z" id="Shape"></path>
            </g>
        </g>
    </g>
</svg>