<?xml version="1.0" encoding="UTF-8"?>
<svg width="27px" height="22px" viewBox="0 0 27 22" version="1.1" xmlns="http://www.w3.org/2000/svg" xmlns:xlink="http://www.w3.org/1999/xlink">
    <!-- Generator: Sketch 52.5 (67469) - http://www.bohemiancoding.com/sketch -->
    <title>Relational Treatment</title>
    <desc>Created with Sketch.</desc>
    <g id="UI" stroke="none" stroke-width="1" fill="none" fill-rule="evenodd">
        <g id="iPad-0-login-Copy-3" transform="translate(-276.000000, -50.000000)" fill="#37484A">
            <g id="Relational-Treatment" transform="translate(276.080000, 50.000000)">
                <path d="M24.0299361,0.0127303371 L6.22171689,0.0127303371 C5.15322374,0.0127303371 4.29842922,0.927337079 4.29842922,2.01497753 L4.29842922,13.5340787 C4.29842922,14.6464382 5.17696804,15.5363258 6.22171689,15.5363258 L18.497516,15.5363258 L21.2755982,18.4531798 C21.3943196,18.5767753 21.5367854,18.6509326 21.7029954,18.6509326 C22.0354155,18.6509326 22.320347,18.3790225 22.320347,18.008236 L22.320347,15.5363258 L24.0299361,15.5363258 C25.0984292,15.5363258 25.9532237,14.6217191 25.9532237,13.5340787 L25.9532237,2.01497753 C25.9532237,0.902617978 25.0746849,0.0127303371 24.0299361,0.0127303371 Z M8.9523105,9.92508989 C7.97879452,9.92508989 7.17148858,9.08464045 7.17148858,8.0711573 C7.17148858,7.05767416 7.97879452,6.21722472 8.9523105,6.21722472 C9.92582648,6.21722472 10.7331324,7.05767416 10.7331324,8.0711573 C10.7331324,9.08464045 9.94957078,9.92508989 8.9523105,9.92508989 Z M15.1970594,9.92508989 C14.2235434,9.92508989 13.4162374,9.08464045 13.4162374,8.0711573 C13.4162374,7.05767416 14.2235434,6.21722472 15.1970594,6.21722472 C16.1705753,6.21722472 16.9778813,7.05767416 16.9778813,8.0711573 C16.9778813,9.08464045 16.1705753,9.92508989 15.1970594,9.92508989 Z M21.4180639,9.92508989 C20.4445479,9.92508989 19.637242,9.08464045 19.637242,8.0711573 C19.637242,7.05767416 20.4445479,6.21722472 21.4180639,6.21722472 C22.3915799,6.21722472 23.1988858,7.05767416 23.1988858,8.0711573 C23.1988858,9.08464045 22.3915799,9.92508989 21.4180639,9.92508989 Z" id="Shape" fill-rule="nonzero"></path>
                <path d="M3.20619178,13.5835169 L3.20619178,9.65317978 L1.25915982,9.65317978 C0.570575342,9.65317978 0.000712328767,10.2464382 0.000712328767,10.9632921 L0.000712328767,18.5273371 C-0.0230319635,19.2936292 0.54683105,19.8868876 1.25915982,19.8868876 L2.37514155,19.8868876 L2.37514155,21.5183483 C2.37514155,21.7408202 2.56509589,21.938573 2.77879452,21.938573 C2.89751598,21.938573 2.99249315,21.8891348 3.06372603,21.8149775 L4.89203653,19.9116067 L12.9650959,19.9116067 C13.6536804,19.9116067 14.2235434,19.3183483 14.2235434,18.6014944 L14.2235434,16.7228427 L6.22171689,16.7228427 C4.55961644,16.7228427 3.20619178,15.3138539 3.20619178,13.5835169 Z" id="Path"></path>
            </g>
        </g>
    </g>
</svg>