<?xml version="1.0" encoding="UTF-8"?>
<svg width="23px" height="24px" viewBox="0 0 23 24" version="1.1" xmlns="http://www.w3.org/2000/svg" xmlns:xlink="http://www.w3.org/1999/xlink">
    <!-- Generator: Sketch 52.5 (67469) - http://www.bohemiancoding.com/sketch -->
    <title>Social Worker Monitoring (Tasks)</title>
    <desc>Created with Sketch.</desc>
    <g id="UI" stroke="none" stroke-width="1" fill="none" fill-rule="evenodd">
        <g id="iPad-0-login-Copy-3" transform="translate(-146.000000, -50.000000)" fill="white">
            <g id="Social-Worker-Monitoring-(Tasks)" transform="translate(146.000000, 50.000000)">
                <path d="M19.2919688,18.8371765 C19.2919688,18.8371765 21.036375,17.6950588 20.7136563,16.9976471 C20.3909375,16.3002353 18.7112188,16.8705882 16.902125,17.8863529 C16.902125,17.8863529 18.12975,21.8717647 10.9587813,20.0696471 C10.9587813,20.0696471 15.0283438,19.98 15.6745,19.4082353 C16.3206563,18.8371765 16.2430313,17.5136471 13.4197813,17.4896471 C11.3519375,17.472 10.3809063,15.5371765 8.5229375,15.2096471 C6.854,14.9145882 4.11196875,16.0425882 0.0100625,19.0616471 L3.07696875,22.0736471 C3.07696875,22.0736471 5.14409375,22.0736471 5.660875,22.0736471 C6.17765625,22.0736471 9.31715625,23.1063529 12.4307813,23.7 C14.5079688,24.096 21.2936875,19.98 22.5852813,19.0284706 C23.8783125,18.0755294 21.875875,17.124 19.2919688,18.8371765 Z" id="Path"></path>
                <path d="M13.0855625,14.3590588 C17.045875,14.3590588 20.2558125,11.2058824 20.2558125,7.31647059 C20.2558125,3.42705882 17.045875,0.273882353 13.0855625,0.273882353 C9.12525,0.273882353 5.91459375,3.42705882 5.91459375,7.31647059 C5.91459375,11.2058824 9.12525,14.3590588 13.0855625,14.3590588 Z M13.8927188,8.52 C13.7238125,8.328 13.515375,8.14941176 13.2659688,7.98564706 C13.0158438,7.82117647 12.744875,7.65952941 12.451625,7.49858824 C12.1590938,7.33764706 11.8866875,7.15764706 11.635125,6.95505882 C11.3828438,6.75388235 11.1729688,6.52094118 11.0055,6.25552941 C10.8373125,5.99082353 10.7532188,5.67176471 10.7532188,5.29835294 C10.7532188,5.04423529 10.7977813,4.80776471 10.8854688,4.58682353 C10.9745938,4.36658824 11.1025313,4.16823529 11.2707188,3.99105882 C11.4381875,3.81388235 11.6451875,3.66635294 11.893875,3.54847059 C12.141125,3.43129412 12.4164063,3.35435294 12.7204375,3.31623529 L12.7204375,2.32658824 L13.4758438,2.32658824 L13.4758438,3.31764706 C13.8840938,3.36211765 14.2334063,3.45388235 14.521625,3.59223529 C14.809125,3.73058824 15.0872813,3.92047059 15.355375,4.16258824 L14.3958438,4.92917647 C14.228375,4.75411765 14.044375,4.61364706 13.8445625,4.50635294 C13.64475,4.40117647 13.406125,4.34682353 13.1294063,4.34682353 C12.802375,4.34682353 12.5500938,4.42729412 12.3732813,4.58752941 C12.1964688,4.74847059 12.1080625,4.95952941 12.1080625,5.22 C12.1080625,5.51505882 12.2280938,5.77482353 12.4695938,5.99858824 C12.627,6.13623529 12.8074063,6.25905882 13.0072188,6.36564706 C13.2070313,6.47152941 13.3989375,6.57882353 13.5858125,6.68752941 C13.8675625,6.84776471 14.12775,7.00870588 14.3685313,7.16894118 C14.6093125,7.32917647 14.8155938,7.50494118 14.9880938,7.69482353 C15.1613125,7.88541176 15.2957188,8.09788235 15.3934688,8.33082353 C15.4912188,8.56376471 15.539375,8.83341176 15.539375,9.13976471 C15.539375,9.68823529 15.3647188,10.1442353 15.0154063,10.5084706 C14.6660938,10.8727059 14.1529063,11.088 13.4765625,11.1550588 L13.4765625,12.3077647 L12.7211563,12.3077647 L12.7211563,11.1437647 C12.2489375,11.0915294 11.8543438,10.9701176 11.5366563,10.7795294 C11.2189688,10.5889412 10.9178125,10.3489412 10.6310313,10.0581176 L11.6042188,9.32470588 C11.7177813,9.42917647 11.82775,9.53011765 11.9348438,9.62752941 C12.0405,9.72423529 12.1547813,9.80894118 12.2755313,9.88164706 C12.3955625,9.95435294 12.5285313,10.0115294 12.6737188,10.0517647 C12.8189063,10.0934118 12.9849375,10.1138824 13.1710938,10.1138824 C13.4930938,10.1138824 13.7360313,10.0263529 13.8991875,9.85058824 C14.0623438,9.67482353 14.1442813,9.46023529 14.1442813,9.20682353 C14.1442813,8.94070588 14.0601875,8.712 13.8927188,8.52 Z" id="Shape" fill-rule="nonzero"></path>
            </g>
        </g>
    </g>
</svg>