<?xml version="1.0" encoding="UTF-8"?>
<svg width="23px" height="24px" viewBox="0 0 23 24" version="1.1" xmlns="http://www.w3.org/2000/svg" xmlns:xlink="http://www.w3.org/1999/xlink">
    <!-- Generator: Sketch 52.5 (67469) - http://www.bohemiancoding.com/sketch -->
    <title>Sample (Tasks)</title>
    <desc>Created with Sketch.</desc>
    <g id="UI" stroke="none" stroke-width="1" fill="none" fill-rule="evenodd">
        <g id="iPad-0-login-Copy-3" transform="translate(-187.000000, -50.000000)" fill="#37484A">
            <g id="Sample-(Tasks)" transform="translate(187.000000, 50.000000)">
                <polygon id="Path" points="17.12 2.71428571 21.32 2.71428571 21.32 7.28571429 17.12 7.28571429"></polygon>
                <polygon id="Path" points="16.28 0 22.16 0 22.16 0.857142857 16.28 0.857142857"></polygon>
                <polygon id="Path" points="17.12 1.71428571 21.32 1.71428571 21.32 3.85714286 17.12 3.85714286"></polygon>
                <path d="M17.12,20.1428571 C17.12,21.3262416 18.0602832,22.2857143 19.22,22.2857143 C20.3797168,22.2857143 21.32,21.3262416 21.32,20.1428571 L21.32,10.7142857 L17.12,10.7142857 L17.12,20.1428571 Z" id="Path"></path>
                <path d="M1.68,10.7142857 L1.68,20.1428571 C1.68,21.3262416 2.62028319,22.2857143 3.78,22.2857143 C4.93971681,22.2857143 5.88,21.3262416 5.88,20.1428571 L5.88,10.7142857 L1.68,10.7142857 Z" id="Path"></path>
                <path d="M9.4,10.7142857 L9.4,20.1428571 C9.4,21.3262416 10.3402832,22.2857143 11.5,22.2857143 C12.6597168,22.2857143 13.6,21.3262416 13.6,20.1428571 L13.6,10.7142857 L9.4,10.7142857 Z" id="Path"></path>
                <polygon id="Path" points="0 8.14285714 23 8.14285714 23 9.85714286 0 9.85714286"></polygon>
                <path d="M3.55271368e-15,19.7142857 L3.55271368e-15,24 L23,24 L23,19.7142857 L22.16,19.7142857 L22.16,20.1428571 C22.16,21.7998047 20.8438086,23.1428571 19.22,23.1428571 C17.5961914,23.1428571 16.28,21.7998047 16.28,20.1428571 L16.28,19.7142857 L14.44,19.7142857 L14.44,20.1428571 C14.44,21.7998047 13.1238086,23.1428571 11.5,23.1428571 C9.87619138,23.1428571 8.56,21.7998047 8.56,20.1428571 L8.56,19.7142857 L6.72,19.7142857 L6.72,20.1428571 C6.72,21.7998047 5.40380862,23.1428571 3.78,23.1428571 C2.15619138,23.1428571 0.84,21.7998047 0.84,20.1428571 L0.84,19.7142857 L3.55271368e-15,19.7142857 Z" id="Path"></path>
                <polygon id="Path" points="8.56 0 14.44 0 14.44 0.857142857 8.56 0.857142857"></polygon>
                <polygon id="Path" points="0.84 0 6.72 0 6.72 0.857142857 0.84 0.857142857"></polygon>
                <polygon id="Shape" fill-rule="nonzero" points="5.88 7.28571429 5.88 1.71428571 1.68 1.71428571 1.68 7.28571429"></polygon>
                <polygon id="Path" points="9.4 1.71428571 13.6 1.71428571 13.6 7.28428571 9.4 7.28428571"></polygon>
            </g>
        </g>
    </g>
</svg>