<?xml version="1.0" encoding="UTF-8"?>
<svg width="24px" height="23px" viewBox="0 0 24 23" version="1.1" xmlns="http://www.w3.org/2000/svg" xmlns:xlink="http://www.w3.org/1999/xlink">
    <!-- Generator: Sketch 52.5 (67469) - http://www.bohemiancoding.com/sketch -->
    <title>Technical Act (Tasks)</title>
    <desc>Created with Sketch.</desc>
    <g id="UI" stroke="none" stroke-width="1" fill="none" fill-rule="evenodd">
        <g id="iPad-0-login-Copy-3" transform="translate(-149.000000, -100.000000)" fill="#3B4652">
            <g id="Technical-Act-(Tasks)" transform="translate(149.000000, 100.000000)">
                <path d="M6.86057143,4.4946381 L6.86057143,3.1721381 C6.86067857,1.48196667 8.20296429,0.105471429 9.85725,0.105471429 L14.1632143,0.105471429 C15.8145,0.105471429 17.1414643,1.49762857 17.1414643,3.17772381 L17.1414643,4.4946381 L15.4271786,4.4946381 L15.4271786,3.17772381 C15.4271786,2.45661905 14.8764643,1.85785238 14.1632143,1.85785238 L9.85725,1.85785238 C9.15417857,1.85785238 8.56821429,2.45300476 8.56821429,3.1721381 L8.56821429,4.49474762 L6.86057143,4.49474762 L6.86057143,4.4946381 Z M10.6071429,9.86119524 L13.3929643,9.86119524 L13.3929643,12.7089238 L16.1786786,12.7089238 L16.1786786,15.5565429 L13.3929643,15.5565429 L13.3929643,18.4041619 L10.6071429,18.4041619 L10.6071429,15.5565429 L7.82142857,15.5565429 L7.82142857,12.7089238 L10.6071429,12.7089238 L10.6071429,9.86119524 Z" id="Shape" fill-rule="nonzero"></path>
                <path d="M23.9998929,20.7041619 C23.9998929,21.910019 23.0367857,22.8945286 21.8571429,22.8945286 L2.14296429,22.8945286 C0.963214286,22.8945286 0.000107142857,21.910019 0.000107142857,20.7041619 L0.000107142857,7.56130476 C0.000107142857,6.3553381 0.963214286,5.3709381 2.14296429,5.3709381 L21.8571429,5.3709381 C23.0367857,5.37082857 23.9998929,6.3553381 23.9998929,7.56130476 L23.9998929,20.7041619 Z M12,20.2659571 C13.6568571,20.2659571 15.1568571,19.5794619 16.2426429,18.4696571 C17.3284286,17.3598524 18,15.8264095 18,14.1327333 C18,12.4389476 17.3284286,10.9056143 16.24275,9.7957 C15.1569643,8.68589524 13.6569643,7.9994 12,7.9994 C10.3431429,7.9994 8.84314286,8.68589524 7.75735714,9.7957 C6.67157143,10.9056143 6.00010714,12.4389476 6.00010714,14.1327333 C6.00010714,15.8264095 6.67157143,17.3598524 7.75735714,18.4696571 C8.84314286,19.5794619 10.3431429,20.2659571 12,20.2659571 Z" id="Shape"></path>
            </g>
        </g>
    </g>
</svg>