<?xml version="1.0" encoding="UTF-8"?>
<svg width="24px" height="19px" viewBox="0 0 24 19" version="1.1" xmlns="http://www.w3.org/2000/svg" xmlns:xlink="http://www.w3.org/1999/xlink">
    <!-- Generator: Sketch 52.5 (67469) - http://www.bohemiancoding.com/sketch -->
    <title>Therapeutic Education (Tasks)</title>
    <desc>Created with Sketch.</desc>
    <g id="UI" stroke="none" stroke-width="1" fill="none" fill-rule="evenodd">
        <g id="iPad-0-login-Copy-3" transform="translate(-36.000000, -105.000000)" fill="#3B4652" fill-rule="nonzero">
            <g id="Therapeutic-Education-(Tasks)" transform="translate(36.000000, 105.000000)">
                <path d="M22.2320475,5.76321293 C22.135549,5.02734221 22.1219466,3.75990494 22.795727,3.33431939 C22.8077626,3.32651711 22.8167359,3.31524715 22.827276,3.30556654 C23.3781365,3.1268365 23.7593591,2.8760076 23.4601068,2.53848669 L15.3341484,0.0547604563 L2.17637982,1.91047529 C2.17637982,1.91047529 0.669649852,2.12893916 0.804249258,4.50357795 C0.877317507,5.79601141 1.27691395,6.43074144 1.62637389,6.74312167 L0.546658754,7.07320152 C0.246979228,7.41072243 0.628130564,7.66162357 1.17906231,7.84006464 C1.18953116,7.85003422 1.19836202,7.86123194 1.21061128,7.86903422 C1.88396439,8.29498099 1.87100297,9.56227376 1.77414837,10.298289 C-0.644866469,10.995076 0.223477745,11.2221369 0.223477745,11.2221369 L0.75411276,11.3523916 C0.380866469,11.6945361 0.0101839763,12.3433536 0.079620178,13.5738745 C0.214290801,15.9480798 1.45189318,16.1119278 1.45189318,16.1119278 L10.0622671,18.9509468 L23.0585875,15.7576464 C23.0585875,15.7576464 23.9272166,15.5302243 21.5075608,14.833365 C21.4102789,14.0985057 21.3967478,12.8313574 22.0716677,12.404327 C22.0840593,12.3967414 22.0931039,12.3852548 22.1031454,12.3757186 C22.6540772,12.1969886 23.0349436,11.9463764 22.7356202,11.6088555 L22.17073,11.4358327 C22.5474659,11.2053764 23.1133531,10.6030837 23.2020178,9.03858175 C23.2631929,7.96244487 22.9864451,7.33219392 22.6661128,6.96115209 L23.7826469,6.68706084 C23.7827181,6.6874943 24.6513472,6.46007224 22.2320475,5.76321293 Z M11.3614006,5.73279848 L13.5468961,5.2771597 L20.9326291,3.73750951 L22.032997,3.50792015 C21.6814006,4.16071103 21.6961424,5.05407224 21.7543264,5.62826236 C21.7670742,5.75815589 21.7817448,5.87677947 21.7959881,5.96693916 L20.5915727,6.27072243 L11.2695312,8.62318251 L11.3614006,5.73279848 Z M1.97341246,8.04335741 L3.07363798,8.27294677 L10.1665994,9.75205703 L10.7862552,9.88079468 L12.6445104,10.2682357 L12.7361662,13.158692 L3.15510979,10.740635 L2.2105638,10.5025209 C2.22445104,10.4122167 2.23912166,10.2937376 2.25243917,10.1634829 C2.31026706,9.58972624 2.32529377,8.69614829 1.97341246,8.04335741 Z M1.54597033,4.38928897 C1.53265282,3.7576654 1.64360831,3.30087072 1.86786944,3.06868061 C2.01058754,2.92043726 2.17901484,2.88958935 2.29452819,2.88958935 C2.35556083,2.88958935 2.39950148,2.89818631 2.40249258,2.89818631 L8.07183383,4.77311787 L10.9003442,5.70859696 L10.807549,8.61920913 L2.87245104,6.36247148 L2.45369733,6.24348669 C2.43831454,6.23907985 2.41744807,6.23604563 2.40135312,6.23532319 C2.36866469,6.23293916 1.58414243,6.15968441 1.54597033,4.38928897 Z M10.0827774,17.6899392 L1.72913947,15.3141445 C1.71368546,15.3095932 1.69303264,15.3065589 1.67693769,15.3057643 C1.64367953,15.3035247 0.858801187,15.2303422 0.82084273,13.4603802 C0.807311573,12.827962 0.918836795,12.3716008 1.14267062,12.1391939 C1.28574481,11.9909506 1.45424332,11.9601027 1.56954303,11.9601027 C1.6307181,11.9601027 1.67451632,11.9684106 1.67772107,11.9684106 C1.67772107,11.9684106 1.67807715,11.9684106 1.67772107,11.9684106 L10.175003,14.7792548 L10.0827774,17.6899392 Z M21.0291276,14.6985589 C21.0423027,14.8288859 21.0569733,14.9472928 21.0712166,15.037597 L10.544546,17.694057 L10.6365579,14.8036008 L12.8870742,14.3342357 L13.2194421,14.4157985 L14.4651632,14.0050951 L20.2074303,12.8080951 L21.3082255,12.5783612 C20.956273,13.2310798 20.9708724,14.1248023 21.0291276,14.6985589 Z M21.6089733,10.770327 C21.589816,10.7707605 21.5706588,10.7733612 21.5526409,10.7791407 L20.7587181,11.0046122 L13.1992166,13.1548631 L13.1067774,10.244251 L15.5869674,9.42363878 L21.592451,7.43687452 C21.5932344,7.43651331 21.908368,7.3654981 22.1396795,7.60411787 C22.3635846,7.83630798 22.4746825,8.29310266 22.4615786,8.92472624 C22.4224095,10.6945437 21.6375312,10.7680875 21.6089733,10.770327 Z" id="Shape"></path>
            </g>
        </g>
    </g>
</svg>