<?xml version="1.0" encoding="UTF-8"?>
<svg width="24px" height="24px" viewBox="0 0 24 24" version="1.1" xmlns="http://www.w3.org/2000/svg" xmlns:xlink="http://www.w3.org/1999/xlink">
    <!-- Generator: Sketch 52.5 (67469) - http://www.bohemiancoding.com/sketch -->
    <title>Therapeutic Activity Icon (Tasks)</title>
    <desc>Created with Sketch.</desc>
    <g id="UI" stroke="none" stroke-width="1" fill="none" fill-rule="evenodd">
        <g id="iPad-0-login-Copy-3" transform="translate(-93.000000, -102.000000)" fill="#3B4652" fill-rule="nonzero">
            <g id="Therapeutic-Activity-Icon-(Tasks)" transform="translate(93.000000, 102.000000)">
                <path d="M17.6555253,4.53329896 C17.6555253,3.35509123 18.6106559,2.3999625 19.788866,2.3999625 C20.967076,2.3999625 21.9222066,3.35509123 21.9222066,4.53329896 C21.9222066,5.71145981 20.967076,6.66663542 19.788866,6.66663542 C18.6106559,6.66663542 17.6555253,5.71150669 17.6555253,4.53329896 Z M21.8667531,7.19998125 C21.8667531,7.19998125 21.4810165,7.21690319 21.2388588,7.43998219 C20.8236376,7.82248368 20.3107753,8.26671979 19.7889128,8.26671979 C19.2768005,8.26671979 18.8009227,7.80645237 18.363342,7.46013852 C18.3503106,7.44982598 18.3346543,7.44162282 18.3205917,7.43210716 C18.45278,7.82098368 18.533218,8.23367279 18.533218,8.6665651 L18.533218,13.9997891 C18.533218,15.1720905 18.0044649,16.2334384 17.1428036,16.9488006 L17.5999781,20.533299 C17.5999781,21.1199887 18.0800278,21.5999437 18.666625,21.5999437 L20.8000125,21.5999437 C21.3866566,21.5999437 21.8666594,21.1199419 21.8666594,20.533299 L22.4848505,15.6305298 C23.3571056,15.3625913 24,14.5570412 24,13.5999437 L24,9.33327083 C24.0000469,8.159985 23.0400413,7.19998125 21.8667531,7.19998125 Z M12.069352,5.33331771 C13.5421262,5.33331771 14.7360395,4.13940679 14.7360395,2.66668229 C14.7360395,1.19391091 13.5421262,0 12.069352,0 C10.5965777,0 9.40271134,1.19386404 9.40271134,2.66668229 C9.40271134,4.13935992 10.5965777,5.33331771 12.069352,5.33331771 Z M14.6667109,5.99997656 C14.6667109,5.99997656 14.1845519,6.02116415 13.8818782,6.30002461 C13.3628283,6.77815148 12.721762,7.33348177 12.0694457,7.33348177 C11.429317,7.33348177 10.8344229,6.75813577 10.2874822,6.32524346 C9.95321457,6.0607268 9.33333594,6.00002344 9.33333594,6.00002344 C7.86665547,6.00002344 6.66664844,7.20002813 6.66664844,8.66670573 L6.66664844,14.0000234 C6.66664844,15.1929968 7.46573124,16.197532 8.55131573,16.5353615 L9.33333594,22.6666823 C9.33333594,23.3999977 9.93338633,24 10.6666562,24 L13.3333438,24 C14.0666605,24 14.6666641,23.3999977 14.6666641,22.6666823 L15.439403,16.5382209 C16.5297219,16.2032977 17.3333516,15.1963719 17.3333516,13.9999766 L17.3333516,8.66665885 C17.3333984,7.19998125 16.1333445,5.99997656 14.6667109,5.99997656 Z M4.3221347,6.66663542 C5.50034473,6.66663542 6.45547533,5.71145981 6.45547533,4.53329896 C6.45547533,3.35509123 5.50034473,2.3999625 4.3221347,2.3999625 C3.14392467,2.3999625 2.18879407,3.35509123 2.18879407,4.53329896 C2.18879407,5.71150669 3.14392467,6.66663542 4.3221347,6.66663542 Z M5.46678203,13.9997891 L5.46678203,8.66661198 C5.46678203,8.28687612 5.52289174,7.92021844 5.62540796,7.57324833 C5.2389682,7.91857781 4.78427803,8.26676667 4.32222845,8.26676667 C3.81011607,8.26676667 3.33423829,7.80649924 2.8966576,7.46018539 C2.62923416,7.24854394 2.13334063,7.19998125 2.13334063,7.19998125 C0.960005625,7.19998125 0,8.159985 0,9.33331771 L0,13.5999906 C0,14.5543694 0.639238121,15.3580444 1.50774321,15.6282798 L2.13334063,20.5333458 C2.13334063,21.1200356 2.61339031,21.5999906 3.1999875,21.5999906 L5.333375,21.5999906 C5.92001906,21.5999906 6.40002188,21.1199887 6.40002188,20.5333458 L6.85255578,16.9443474 C5.99370699,16.2288446 5.46678203,15.1684343 5.46678203,13.9997891 Z" id="Shape"></path>
            </g>
        </g>
    </g>
</svg>